<?xml version="1.0" encoding="UTF-8"?>
<svg id="Layer_1" data-name="Layer 1" xmlns="http://www.w3.org/2000/svg" xmlns:xlink="http://www.w3.org/1999/xlink" viewBox="0 0 600 600">
  <defs>
    <style>
      .cls-1 {
        fill: url(#linear-gradient);
      }

      .cls-2 {
        fill: #fff;
      }
    </style>
    <linearGradient id="linear-gradient" x1="64.29" y1="299.99" x2="535.38" y2="299.99" gradientUnits="userSpaceOnUse">
      <stop offset="0" stop-color="#f43b00"/>
      <stop offset="1" stop-color="#ff5e00"/>
    </linearGradient>
  </defs>
  <path d="M565.67,175.91v248.16c0,18.13-9.68,34.87-25.38,43.93l-214.91,124.08c-15.7,9.06-35.04,9.06-50.74,0l-214.93-124.08c-15.7-9.06-25.37-25.81-25.38-43.93v-248.16c0-18.13,9.68-34.89,25.38-43.95L274.64,7.92c15.7-9.06,35.04-9.06,50.74,0l214.91,124.08c15.69,9.06,25.36,25.79,25.38,43.91Z"/>
  <path class="cls-1" d="M299.88,568.83c-3.63,0-7.19-.95-10.34-2.77l-214.91-124.08c-6.39-3.7-10.33-10.52-10.34-17.91v-248.16c.02-7.38,3.95-14.2,10.34-17.91l214.83-124.08c6.4-3.69,14.28-3.69,20.67,0l214.91,124.08c6.39,3.71,10.32,10.52,10.34,17.91v248.16c-.01,7.38-3.95,14.2-10.34,17.91l-214.81,124.08c-3.15,1.82-6.72,2.77-10.36,2.77Z"/>
  <g>
    <path d="M331.94,335.67l-.38.48-16.41,20.86-4.99,6.34c-4.44,5.58-12.55,6.5-18.13,2.06-.76-.61-1.45-1.3-2.06-2.06l-5.11-6.34-16.41-20.86-.38-.48H34.33v88.41c0,18.13,9.68,34.87,25.38,43.93l214.91,124.08c15.7,9.06,35.04,9.06,50.74,0l214.91-124.08c15.7-9.06,25.37-25.81,25.38-43.93v-88.41h-233.71Z"/>
    <path class="cls-2" d="M300,39.21c2.21,0,4.38.59,6.3,1.7l214.91,124.08c3.89,2.26,6.29,6.42,6.3,10.92v248.16c0,4.5-2.4,8.66-6.3,10.92l-214.91,124.08c-3.9,2.25-8.7,2.25-12.6,0l-214.91-124.1c-3.9-2.26-6.29-6.42-6.3-10.92v-248.14c0-4.5,2.4-8.66,6.3-10.92l214.91-124.08c1.91-1.11,4.09-1.69,6.3-1.7M300,31.13c-3.63,0-7.19.95-10.34,2.77l-214.91,124.08c-6.39,3.71-10.32,10.52-10.34,17.91v248.18c.01,7.38,3.95,14.2,10.34,17.91l214.91,124.08c6.4,3.69,14.28,3.69,20.67,0l214.91-124.08c6.39-3.7,10.33-10.52,10.34-17.91v-248.16c-.02-7.38-3.95-14.2-10.34-17.91l-214.91-124.1c-3.14-1.81-6.71-2.77-10.34-2.77Z"/>
    <g>
      <path class="cls-2" d="M339.41,111.64l-8.63-10.78-16.02-20.03-4.93-6.06c-2.36-2.98-6.06-4.72-9.86-4.72s-7.5,1.75-9.96,4.72l-4.93,6.06-16.02,20.03-8.63,10.78c-4.31,5.34-3.39,13.15,2.05,17.36,2.36,1.75,5.03,2.67,7.81,2.67s7.39-1.64,9.96-4.72l4.93-6.06,12.63-15.82-6.78-13.87,23.72,29.68,4.93,6.06c2.46,3.08,6.16,4.72,9.96,4.72s5.44-.82,7.81-2.67c5.44-4.21,6.47-12.02,2.16-17.36h-.21Z"/>
      <g>
        <path class="cls-2" d="M338.29,150.59h-36.97c-.8,0-1.31.8-.9,1.51l2.01,4.12c.2.4.5.6,1,.6h13.97v32.85c0,.6.5,1,1.11,1h5.02c.6,0,1.11-.5,1.11-1v-32.85h13.76c.6,0,1-.5,1-1v-4.12c0-.6-.5-1-1-1l-.1-.1Z"/>
        <path class="cls-2" d="M185.68,154.1c-1-2.11-3.21-3.42-5.63-3.42h-1.21c-2.41,0-4.52,1.31-5.63,3.42l-17.18,35.16c-.3.7.2,1.51,1,1.51h5.32c.4,0,.8-.2,1-.6l4.12-8.54h24.11l4.12,8.54c.2.4.5.6,1,.6h5.32c.8,0,1.31-.8,1-1.51l-17.18-35.16h-.2ZM170.31,175.7l8.04-16.88c.5-1,2.01-1,2.51,0l8.04,16.88h-18.59Z"/>
        <path class="cls-2" d="M240.54,150.59h-5.32c-.4,0-.8.2-1,.6l-14.37,30.34c-.5,1-2.01,1-2.51,0l-14.57-30.34c-.2-.4-.5-.6-1-.6h-5.32c-.8,0-1.31.8-.9,1.51l17.28,35.16c1,2.11,3.21,3.42,5.53,3.42h.2c2.41,0,4.52-1.31,5.53-3.42l17.28-35.16c.3-.7-.2-1.51-.9-1.51h.1Z"/>
        <path class="cls-2" d="M254.3,150.59h-5.02c-.6,0-1.11.5-1.11,1v37.98c0,.6.5,1,1.11,1h5.02c.6,0,1.11-.5,1.11-1v-37.88c0-.6-.5-1-1.11-1v-.1Z"/>
        <path class="cls-2" d="M290.57,154.1c-1-2.11-3.21-3.42-5.63-3.42h-1.21c-2.41,0-4.52,1.31-5.63,3.42l-17.18,35.16c-.3.7.2,1.51,1,1.51h5.32c.4,0,.8-.2,1-.6l4.12-8.54h24.11l4.12,8.54c.2.4.5.6,1,.6h5.32c.8,0,1.31-.8.9-1.51l-17.18-35.16h-.1ZM275.2,175.7l8.04-16.88c.5-1,2.01-1,2.51,0l8.04,16.88h-18.59Z"/>
        <path class="cls-2" d="M378.78,168.87c1.21-1.81,1.81-3.92,1.81-6.23s-.6-4.52-1.81-6.33c-1.21-1.81-2.91-3.21-5.02-4.22-2.11-1-4.72-1.51-7.54-1.51h-19.09c-.6,0-1.11.5-1.11,1v37.98c0,.6.5,1,1.11,1h5.02c.6,0,1.11-.5,1.11-1v-14.97h6.13l13.36,15.67c.2.2.5.4.8.4h5.83c.9,0,1.41-1,.8-1.71l-12.46-14.47c2.21-.2,4.32-.6,6.03-1.41,2.11-1,3.82-2.41,5.02-4.22h0ZM371.14,167.06c-1.41,1.11-3.32,1.61-5.73,1.61h-12.36v-11.96h12.36c2.41,0,4.32.5,5.73,1.61,1.41,1,2.11,2.51,2.11,4.42s-.7,3.32-2.11,4.42v-.1Z"/>
        <path class="cls-2" d="M395.56,150.59h-5.02c-.6,0-1.11.5-1.11,1v37.98c0,.6.5,1,1.11,1h5.02c.6,0,1.11-.5,1.11-1v-37.88c0-.6-.5-1-1.11-1v-.1Z"/>
        <path class="cls-2" d="M429.01,170.68l14.77-18.29c.6-.7,0-1.71-.8-1.71h-5.83c-.3,0-.7.1-.9.4l-11.45,14.27-11.45-14.27c-.2-.2-.6-.4-.9-.4h-5.83c-.9,0-1.41,1-.8,1.71l14.77,18.29-14.77,18.29c-.6.7,0,1.71.8,1.71h5.83c.3,0,.7-.1.9-.4l11.45-14.27,11.45,14.27c.2.2.6.4.9.4h5.83c.9,0,1.41-1,.8-1.71l-14.77-18.29Z"/>
      </g>
      <g>
        <path class="cls-2" d="M192.82,299.96l25.83-75.74h24.07l26.56,75.74h-15.15l-22.51-65.68,5.29,2.28h-12.97l5.4-2.28-21.79,65.68h-14.73ZM210.88,279.84l4.67-12.45h30.71l4.57,12.45h-39.94Z"/>
        <path class="cls-2" d="M311.72,301.93c-6.85,0-12.73-1.21-17.64-3.63-4.91-2.42-8.91-5.57-11.98-9.44-3.08-3.87-5.34-8.09-6.8-12.66-1.45-4.57-2.18-8.96-2.18-13.18v-2.28c0-4.7.74-9.34,2.23-13.9,1.49-4.57,3.79-8.72,6.9-12.45,3.11-3.74,7.07-6.73,11.88-8.97,4.81-2.25,10.5-3.37,17.07-3.37s12.81,1.23,17.9,3.68c5.08,2.46,9.15,5.91,12.19,10.38,3.04,4.46,4.88,9.67,5.5,15.61h-14.84c-.55-3.46-1.78-6.38-3.68-8.77-1.9-2.39-4.31-4.18-7.21-5.4-2.91-1.21-6.19-1.82-9.86-1.82s-7.06.64-9.96,1.92c-2.91,1.28-5.33,3.1-7.26,5.45-1.94,2.35-3.41,5.12-4.41,8.3-1,3.18-1.5,6.71-1.5,10.58s.5,7.2,1.5,10.38c1,3.18,2.51,5.97,4.51,8.35,2.01,2.39,4.48,4.24,7.42,5.55,2.94,1.32,6.35,1.97,10.22,1.97,5.67,0,10.46-1.4,14.37-4.2,3.91-2.8,6.28-6.73,7.11-11.78h14.84c-.69,5.4-2.53,10.34-5.5,14.84-2.98,4.5-7.05,8.09-12.24,10.79-5.19,2.7-11.38,4.05-18.57,4.05Z"/>
        <path class="cls-2" d="M360.49,299.96v-75.74h14.42v75.74h-14.42ZM372.83,236.67v-12.45h33.51v12.45h-33.51ZM372.83,267.7v-12.45h31.64v12.45h-31.64ZM372.83,299.96v-12.45h34.34v12.45h-34.34Z"/>
      </g>
    </g>
    <g>
      <path class="cls-2" d="M102.27,420.87l9.14-27.69h10.05l9.48,27.69h-6.45l-7.66-23.4,1.97.8h-4.89l2.05-.8-7.47,23.4h-6.22ZM109.21,414.01l1.9-5.16h10.85l1.93,5.16h-14.68Z"/>
      <path class="cls-2" d="M138.79,420.87l-8.42-27.69h6.41l6.67,23.36-1.44-.72h3.87l-1.52.72,6.18-23.36h6.22l-7.85,27.69h-10.13Z"/>
      <path class="cls-2" d="M160.82,420.87v-27.69h6.22v27.69h-6.22Z"/>
      <path class="cls-2" d="M170.72,420.87l9.14-27.69h10.05l9.48,27.69h-6.45l-7.66-23.4,1.97.8h-4.89l2.05-.8-7.47,23.4h-6.22ZM177.66,414.01l1.9-5.16h10.85l1.93,5.16h-14.68Z"/>
      <path class="cls-2" d="M198.25,398.61v-5.42h21.81v5.42h-21.81ZM206.03,420.87v-23.02h6.22v23.02h-6.22Z"/>
      <path class="cls-2" d="M223.96,420.87v-27.91h6.22v27.91h-6.22ZM228.51,412v-4.89h6.83c.91,0,1.7-.18,2.37-.55s1.19-.89,1.56-1.56c.36-.67.55-1.45.55-2.33s-.19-1.66-.55-2.33c-.37-.67-.89-1.19-1.56-1.55s-1.46-.55-2.37-.55h-6.83v-5.27h6.33c2.3,0,4.3.35,5.99,1.04s2.99,1.73,3.91,3.09c.91,1.36,1.37,3.08,1.37,5.16v.61c0,2.05-.46,3.75-1.38,5.1-.92,1.35-2.23,2.37-3.91,3.03-1.68.67-3.67,1.01-5.97,1.01h-6.33ZM240.76,420.87l-8.12-11.91h6.83l8.5,11.91h-7.21Z"/>
      <path class="cls-2" d="M251.72,420.87v-27.69h6.22v27.69h-6.22Z"/>
      <path class="cls-2" d="M261.47,420.87l9.44-14.75.07.64-8.72-13.58h6.83l5.39,8.65h.87l5.31-8.65h6.64l-8.76,13.65-.11-.61,9.75,14.64h-6.87l-6.3-9.78h-.91l-5.99,9.78h-6.64Z"/>
      <path class="cls-2" d="M312.29,421.59c-2.5,0-4.65-.44-6.45-1.31-1.8-.87-3.26-2.02-4.4-3.45-1.14-1.43-1.98-2.97-2.52-4.63-.54-1.66-.82-3.27-.82-4.84v-.83c0-1.72.28-3.42.83-5.1s1.41-3.2,2.56-4.57c1.15-1.36,2.6-2.46,4.36-3.28,1.76-.82,3.83-1.23,6.24-1.23s4.71.47,6.64,1.4c1.92.93,3.46,2.23,4.61,3.89,1.15,1.66,1.83,3.6,2.03,5.82h-6.26c-.18-1.11-.58-2.06-1.21-2.84-.63-.78-1.45-1.39-2.45-1.82s-2.12-.64-3.36-.64-2.34.21-3.3.64c-.96.43-1.76,1.04-2.41,1.82-.64.78-1.14,1.71-1.48,2.79s-.51,2.27-.51,3.58.17,2.47.51,3.54c.34,1.08.85,2.01,1.52,2.81s1.5,1.4,2.48,1.82c.99.42,2.11.62,3.38.62,1.92,0,3.55-.47,4.87-1.4s2.13-2.22,2.41-3.87h6.22c-.23,2.02-.9,3.87-2.03,5.56-1.13,1.68-2.66,3.02-4.59,4.02-1.93,1-4.23,1.5-6.88,1.5Z"/>
      <path class="cls-2" d="M329.92,420.87v-27.69h6.07v27.69h-6.07ZM335.23,398.34v-5.16h11.83v5.16h-11.83ZM335.23,409.38v-5.16h11.23v5.16h-11.23ZM335.23,420.87v-5.16h12.1v5.16h-12.1Z"/>
      <path class="cls-2" d="M352.45,420.87v-27.91h6.22v27.91h-6.22ZM357,412v-4.89h6.83c.91,0,1.7-.18,2.37-.55s1.19-.89,1.56-1.56c.36-.67.55-1.45.55-2.33s-.19-1.66-.55-2.33c-.37-.67-.89-1.19-1.56-1.55s-1.46-.55-2.37-.55h-6.83v-5.27h6.33c2.3,0,4.3.35,5.99,1.04s2.99,1.73,3.91,3.09c.91,1.36,1.37,3.08,1.37,5.16v.61c0,2.05-.46,3.75-1.38,5.1-.92,1.35-2.23,2.37-3.91,3.03-1.68.67-3.67,1.01-5.97,1.01h-6.33ZM369.25,420.87l-8.12-11.91h6.83l8.5,11.91h-7.21Z"/>
      <path class="cls-2" d="M377.1,398.61v-5.42h21.81v5.42h-21.81ZM384.87,420.87v-23.02h6.22v23.02h-6.22Z"/>
      <path class="cls-2" d="M402.89,420.87v-27.69h6.22v27.69h-6.22Z"/>
      <path class="cls-2" d="M415.4,420.87v-27.69h6.22v27.69h-6.22ZM420.86,398.34v-5.16h11.15v5.16h-11.15ZM420.86,409.72v-5.16h10.69v5.16h-10.69Z"/>
      <path class="cls-2" d="M436.72,420.87v-27.69h6.22v27.69h-6.22Z"/>
      <path class="cls-2" d="M449.23,420.87v-27.69h6.07v27.69h-6.07ZM454.54,398.34v-5.16h11.83v5.16h-11.83ZM454.54,409.38v-5.16h11.23v5.16h-11.23ZM454.54,420.87v-5.16h12.1v5.16h-12.1Z"/>
      <path class="cls-2" d="M471.76,421.02v-28.06h6.22v28.06h-6.22ZM477.22,421.02v-5.8h5.16c1.29,0,2.45-.2,3.49-.59,1.04-.39,1.92-.95,2.65-1.67.73-.72,1.29-1.59,1.67-2.62.38-1.02.57-2.15.57-3.39s-.19-2.44-.57-3.45c-.38-1.01-.94-1.87-1.67-2.58s-1.62-1.24-2.65-1.61c-1.04-.37-2.2-.55-3.49-.55h-5.16v-5.8h4.82c2.5,0,4.69.37,6.56,1.1s3.44,1.73,4.7,2.99c1.26,1.27,2.2,2.71,2.83,4.34.62,1.63.93,3.34.93,5.14v.83c0,1.67-.31,3.32-.93,4.95-.62,1.63-1.56,3.1-2.83,4.4-1.27,1.3-2.83,2.34-4.7,3.13-1.87.78-4.06,1.18-6.56,1.18h-4.82Z"/>
      <path class="cls-2" d="M200.19,469.33v-27.69h6.07v27.69h-6.07ZM205.49,446.8v-5.16h11.83v5.16h-11.83ZM205.49,457.83v-5.16h11.23v5.16h-11.23ZM205.49,469.33v-5.16h12.1v5.16h-12.1Z"/>
      <path class="cls-2" d="M222.71,469.33v-27.69h10.2l10.43,22.64h1.29l-.76.68v-23.32h5.84v27.69h-10.28l-10.43-22.64h-1.29l.76-.68v23.32h-5.76Z"/>
      <path class="cls-2" d="M269.06,470.04c-2.48,0-4.64-.41-6.49-1.23-1.85-.82-3.37-1.93-4.57-3.32-1.2-1.39-2.09-2.93-2.67-4.63-.58-1.69-.87-3.39-.87-5.08v-.83c0-1.74.29-3.45.87-5.12.58-1.67,1.46-3.19,2.63-4.55,1.18-1.37,2.64-2.45,4.4-3.26,1.76-.81,3.79-1.21,6.09-1.21,2.5,0,4.71.46,6.64,1.38,1.92.92,3.46,2.2,4.63,3.83,1.16,1.63,1.83,3.52,2.01,5.67h-6.22c-.15-1.01-.55-1.9-1.19-2.66-.64-.76-1.47-1.35-2.47-1.78-1-.43-2.13-.64-3.39-.64s-2.29.21-3.24.64-1.76,1.04-2.43,1.82c-.67.78-1.18,1.71-1.52,2.79s-.51,2.26-.51,3.55.18,2.56.55,3.66.9,2.05,1.61,2.84c.71.79,1.59,1.41,2.63,1.84,1.05.43,2.22.64,3.51.64,1.72,0,3.21-.35,4.47-1.06s2.17-1.64,2.73-2.81l-.76,4.25v-6.6h5.73v5.92c-1.19,1.92-2.83,3.39-4.91,4.42-2.09,1.03-4.51,1.54-7.26,1.54ZM268.26,459.39v-4.47h15.24v4.47h-15.24Z"/>
      <path class="cls-2" d="M287.6,469.33v-27.69h6.22v27.69h-6.22Z"/>
      <path class="cls-2" d="M300.12,469.33v-27.69h10.2l10.43,22.64h1.29l-.76.68v-23.32h5.84v27.69h-10.28l-10.43-22.64h-1.29l.76-.68v23.32h-5.76Z"/>
      <path class="cls-2" d="M333.34,469.33v-27.69h6.07v27.69h-6.07ZM338.65,446.8v-5.16h11.83v5.16h-11.83ZM338.65,457.83v-5.16h11.23v5.16h-11.23ZM338.65,469.33v-5.16h12.1v5.16h-12.1Z"/>
      <path class="cls-2" d="M355.86,469.33v-27.69h6.07v27.69h-6.07ZM361.17,446.8v-5.16h11.83v5.16h-11.83ZM361.17,457.83v-5.16h11.23v5.16h-11.23ZM361.17,469.33v-5.16h12.1v5.16h-12.1Z"/>
      <path class="cls-2" d="M378.39,469.33v-27.91h6.22v27.91h-6.22ZM382.94,460.45v-4.89h6.83c.91,0,1.7-.18,2.37-.55s1.19-.89,1.56-1.56c.36-.67.55-1.45.55-2.33s-.19-1.66-.55-2.33c-.37-.67-.89-1.19-1.56-1.55s-1.46-.55-2.37-.55h-6.83v-5.27h6.33c2.3,0,4.3.35,5.99,1.04s2.99,1.73,3.91,3.09c.91,1.36,1.37,3.08,1.37,5.16v.61c0,2.05-.46,3.75-1.38,5.1-.92,1.35-2.23,2.37-3.91,3.03-1.68.67-3.67,1.01-5.97,1.01h-6.33ZM395.19,469.33l-8.12-11.91h6.83l8.5,11.91h-7.21Z"/>
    </g>
  </g>
</svg>